<svg width="503" height="450" xmlns="http://www.w3.org/2000/svg">

 <g>
  <title>background</title>
  <rect fill="none" id="canvas_background" height="452" width="505" y="-1" x="-1"/>
 </g>
 <g>
  <title>Layer 1</title>
  <path stroke="null" id="svg_1" fill="#64B5F6" d="m110.741,277.928359c-3.985,-1.224089 -8.574,-0.551358 -11.627,1.705139l-35.114,26.003375l-35.115,-26.003375c-4.16,-3.086865 -10.914,-3.092785 -15.085,-0.014061c-2.011,1.484596 -3.139,3.501308 -3.134,5.603129l0,157.883029c0,4.359799 4.776,7.89441 10.667,7.89441l85.333,0c5.891,0 10.667,-3.534612 10.667,-7.89441l0,-157.883029c0,-3.194176 -2.603,-6.073819 -6.592,-7.294207z"/>
  <path stroke="null" id="svg_2" fill="#42A5F5" d="m199.552,194.519696c-4.165,-3.37026 -10.917,-3.37026 -15.083,0l-42.667,34.533831c-2.007,1.61957 -3.135,3.818657 -3.136,6.11244l0,207.20137c0,4.76806 4.776,8.63366 10.667,8.63366l85.333,0c5.891,0 10.667,-3.865601 10.667,-8.63366l0,-207.20137c0.005,-2.291356 -1.115,-4.490442 -3.115,-6.11244l-42.666,-34.533831z"/>
  <path stroke="null" id="svg_3" fill="#2196F3" d="m327.552,151.905507c-4.165,-3.440677 -10.917,-3.440677 -15.083,0l-42.667,35.255367c-2.007,1.653409 -3.135,3.898442 -3.136,6.240151l0,246.785915c0,4.867681 4.776,8.814048 10.667,8.814048l85.333,0c5.891,0 10.667,-3.946367 10.667,-8.814048l0,-246.785915c0.005,-2.33923 -1.115,-4.584264 -3.115,-6.240151l-42.666,-35.255367z"/>
  <path stroke="null" id="svg_4" fill="#1976D2" d="m498.219,127.315109l-21.333,-18.017267c-2.004,-1.688301 -4.721,-2.635067 -7.552,-2.630844l-21.334,0c-2.831,-0.004223 -5.548,0.941698 -7.552,2.630844l-42.667,36.035379c-1.999,1.692523 -3.12,3.987227 -3.115,6.378212l0,288.280501c0,4.975377 4.776,9.009056 10.667,9.009056l85.333,0c5.891,0 10.667,-4.033679 10.667,-9.009056l0,-306.298612c0.005,-2.390985 -1.115,-4.685689 -3.114,-6.378212z"/>
  <path id="svg_5" fill="#ff4747" d="m490.667,0l-64,0c-5.891,-0.011 -10.675,4.757 -10.686,10.648c-0.005,2.84 1.123,5.565 3.134,7.571l24.469,24.448l-80.917,80.917l-35.115,-35.136c-4.165,-4.164 -10.917,-4.164 -15.083,0l-77.803,77.803l-35.115,-35.136c-4.165,-4.164 -10.917,-4.164 -15.083,0l-120.468,120.469l-35.115,-35.136c-4.237,-4.093 -10.99,-3.975 -15.083,0.262c-3.992,4.134 -3.992,10.687 0,14.82l42.667,42.667c4.165,4.164 10.917,4.164 15.083,0l120.448,-120.448l35.115,35.115c4.165,4.164 10.917,4.164 15.083,0l77.802,-77.781l35.115,35.115c4.165,4.164 10.917,4.164 15.083,0l88.469,-88.448l24.448,24.448c2.001,2.007 4.718,3.135 7.552,3.136c1.399,0.003 2.784,-0.273 4.075,-0.811c3.989,-1.649 6.591,-5.539 6.592,-9.856l0,-64c-0.001,-5.891 -4.776,-10.667 -10.667,-10.667z"/>
  <g id="svg_6"/>
  <g id="svg_7"/>
  <g id="svg_8"/>
  <g id="svg_9"/>
  <g id="svg_10"/>
  <g id="svg_11"/>
  <g id="svg_12"/>
  <g id="svg_13"/>
  <g id="svg_14"/>
  <g id="svg_15"/>
  <g id="svg_16"/>
  <g id="svg_17"/>
  <g id="svg_18"/>
  <g id="svg_19"/>
  <g id="svg_20"/>
 </g>
</svg>